HIERARCHY
ROOT Hips
{
	OFFSET 0.00000 0.00000 0.00000
	CHANNELS 6 Xposition Yposition Zposition Yrotation Zrotation Xrotation 
	JOINT Lumbar
	{
		OFFSET 0 0 0
		CHANNELS 3 Zrotation Xrotation Yrotation
		JOINT Neck
		{
			OFFSET 0.00 0.2701 0.00
			CHANNELS 3 Zrotation Xrotation Yrotation
			End Site
			{
				OFFSET 0.00 0.1379 0.00
			}
		}
		JOINT RightShoulder
		{
			OFFSET 0.0119 0.2289 0.1181
			CHANNELS 3 Zrotation Xrotation Yrotation
			JOINT RightElbow
			{
				OFFSET 0.00 -0.1475 0.00
				CHANNELS 2 Zrotation Yrotation
				JOINT RightWrist
				{
					OFFSET 0.00 -0.1605 0.00
					CHANNELS 2 Zrotation Xrotation
					End Site
					{
						OFFSET 0.0040 -0.1068 0.0006
					}
				}
			}
		}
		JOINT LeftShoulder
		{
			OFFSET 0.0119 0.2289 -0.1181
			CHANNELS 3 Zrotation Xrotation Yrotation
			JOINT LeftElbow
			{
				OFFSET 0.00 -0.1475 0.00
				CHANNELS 2 Zrotation Yrotation
				JOINT LeftWrist
				{
					OFFSET 0.00 -0.1605 0.00
					CHANNELS 2 Zrotation Xrotation
					End Site
					{
						OFFSET 0.0040 -0.1068 -0.0006
					}
				}
			}
		}
	}
	JOINT RightHip
	{
		OFFSET 0.0316 -0.0424 0.0458
		CHANNELS 3 Zrotation Xrotation Yrotation
		JOINT RightKnee
		{
			OFFSET 0.00 -0.2438 0.00
			CHANNELS 1 Zrotation
			JOINT RightAnkle
			{
				OFFSET 0.00 -0.2449 0.00
				CHANNELS 3 Zrotation Xrotation Yrotation
				End Site
				{
					OFFSET 0.1237 -0.0542 0.0051
				}
			}
		}
	}
	JOINT LeftHip
	{
		OFFSET 0.0316 -0.0424 -0.0458
		CHANNELS 3 Zrotation Xrotation Yrotation
		JOINT LeftKnee
		{
			OFFSET 0.00 -0.2438 0.00
			CHANNELS 1 Zrotation
			JOINT LeftAnkle
			{
				OFFSET 0.00 -0.2449 0.00
				CHANNELS 3 Zrotation Xrotation Yrotation
				End Site
				{
					OFFSET 0.1237 -0.0542 -0.0051
				}
			}
		}
	}
}
MOTION
Frames: 30
Frame Time: 0.02
-0.33269 -0.03599 -0.55844 309.43815 -23.95182 -8.70389 30.49139 5.31498 -27.64612 -7.63133 8.55856 -2.11994 19.97229 -43.29388 12.28728 122.69363 107.30677 -31.53642 -6.73879 55.20727 15.4251 -45.0721 93.83983 -109.75531 -30.436 7.29884 46.89414 -2.52317 -13.71687 -9.30665 -14.80144 -2.55847 -3.89045 37.7502 1.95384 14.24055 -39.46387 -7.44559 3.73155 4.09657
-0.33456 -0.0356 -0.55662 307.82184 -23.84553 -8.74757 30.81878 5.4405 -27.47884 -7.69006 8.47924 -2.11994 19.54761 -42.91551 12.11772 122.85309 105.20273 -30.17209 -6.52576 54.77145 15.01369 -44.93069 94.03534 -109.55433 -30.2898 7.28001 47.26077 -3.40745 -12.5977 -12.74483 -14.24986 -3.04793 -4.11756 37.88002 2.37478 14.23244 -39.71233 -7.56037 3.81602 4.14267
-0.33639 -0.03543 -0.55431 306.34634 -23.77324 -8.76519 31.18279 5.53408 -27.29675 -7.73161 8.45238 -2.11994 18.98141 -42.42555 11.90097 123.07825 102.60215 -28.49045 -6.26232 54.09885 14.65718 -44.8077 94.34496 -109.26976 -30.09618 7.25155 47.88972 -4.38007 -12.30845 -16.63643 -13.969 -2.98933 -4.06794 38.02015 2.81904 14.15437 -40.07879 -7.66563 3.88531 4.18296
-0.33827 -0.03515 -0.5522 304.80369 -23.6824 -8.79348 31.52161 5.64178 -27.11196 -7.7793 8.40518 -2.11994 18.48014 -41.97982 11.71065 123.26863 100.37797 -27.04176 -6.03801 53.53506 14.28514 -44.67922 94.6021 -109.02729 -29.92322 7.22835 48.36818 -5.28751 -11.61539 -20.21758 -13.5763 -3.18604 -4.14839 38.14744 3.25546 14.10014 -40.39164 -7.77679 3.96097 4.22565
-0.34002 -0.03491 -0.5502 303.28122 -23.60192 -8.82728 31.89744 5.75251 -26.96627 -7.83458 8.34646 -2.11994 17.96347 -41.54968 11.50175 123.48011 97.50746 -25.20824 -5.74471 52.92907 13.86644 -44.52368 94.87077 -108.75099 -29.73913 7.20029 48.9712 -6.30942 -11.00106 -24.25521 -13.13098 -3.34333 -4.20465 38.30588 3.68375 14.07782 -40.70958 -7.88135 4.03856 4.26908
-0.34203 -0.03463 -0.54784 301.74677 -23.50968 -8.8427 32.20449 5.84837 -26.73502 -7.86948 8.3225 -2.11994 17.45245 -41.0646 11.32111 123.66254 95.85952 -24.09881 -5.5823 52.36885 13.56043 -44.43387 95.13874 -108.52238 -29.56722 7.17952 49.38271 -7.10948 -10.44061 -27.444 -12.86104 -3.45642 -4.24725 38.40312 4.13248 13.97161 -41.0425 -7.99795 4.10863 4.30972
-0.34468 -0.03417 -0.54461 300.15512 -23.36827 -8.81982 32.31351 5.91655 -26.28329 -7.85562 8.38666 -2.11994 16.96604 -40.46201 11.20978 123.75511 97.82695 -25.14112 -5.80609 51.9964 13.55371 -44.53023 95.38046 -108.56767 -29.51275 7.19424 49.1669 -7.28688 -9.72877 -28.17372 -13.01632 -3.59596 -4.32752 38.32876 4.64098 13.67062 -41.39329 -8.1429 4.16158 4.34358
-0.3476 -0.03366 -0.54103 298.54443 -23.21589 -8.77815 32.35199 5.96965 -25.74496 -7.82105 8.48228 -2.11994 16.49815 -39.80914 11.13223 123.8146 101.02231 -26.91145 -6.16103 51.68395 13.65874 -44.69277 95.61496 -108.65029 -29.46513 7.21508 48.75628 -7.23412 -9.06326 -28.03245 -13.3381 -3.7093 -4.4031 38.19272 5.16767 13.28584 -41.75322 -8.30139 4.20745 4.3749
-0.35045 -0.03318 -0.53759 296.93402 -23.07405 -8.7412 32.42183 6.02598 -25.23725 -7.79393 8.56035 -2.11994 16.03783 -39.17569 11.05118 123.88563 103.58183 -28.30211 -6.44824 51.34572 13.71322 -44.82108 95.85008 -108.63306 -29.36566 7.22424 48.45803 -7.27884 -8.44492 -28.28984 -13.58007 -3.82726 -4.47677 38.08575 5.67906 12.92514 -42.10503 -8.45856 4.25672 4.40781
-0.35306 -0.03269 -0.53423 295.36131 -22.90909 -8.71973 32.49507 6.09678 -24.76166 -7.77508 8.65569 -2.11994 15.49779 -38.54983 10.91626 123.97548 106.45436 -29.88803 -6.76882 50.98779 13.77047 -44.96673 96.10344 -108.94044 -29.4558 7.26839 48.06844 -7.35934 -7.57081 -28.54962 -13.84966 -3.95662 -4.55777 37.97563 6.21892 12.61517 -42.47862 -8.59572 4.30498 4.43886
-0.35625 -0.03221 -0.53061 293.70706 -22.79026 -8.66155 32.54508 6.13394 -24.20407 -7.73361 8.71976 -2.11994 15.139 -37.90121 10.90503 124.01518 108.97024 -31.24366 -7.05066 50.69397 13.84531 -45.09247 96.312 -108.60924 -29.17101 7.244 47.81914 -7.30635 -7.225 -28.59383 -14.09676 -4.06317 -4.62595 37.8561 6.70611 12.18791 -42.80642 -8.777 4.35348 4.473
-0.36094 -0.03176 -0.52638 291.8032 -22.79248 -8.5097 32.53868 6.08468 -23.39723 -7.64085 8.70691 -2.11994 15.20348 -37.17353 11.20325 123.94252 110.22666 -31.7928 -7.20278 50.51822 13.96213 -45.14108 96.42765 -106.26343 -27.69341 7.00459 48.00487 -6.96711 -8.36567 -28.23297 -14.24797 -4.11657 -4.66211 37.73644 7.0204 11.39241 -43.01477 -9.08482 4.4077 4.51843
-0.36623 -0.03134 -0.52189 289.82305 -22.8428 -8.32115 32.51301 6.00163 -22.51975 -7.52518 8.65781 -2.11994 15.46567 -36.43095 11.62993 123.81629 111.07833 -32.08506 -7.31001 50.41522 14.08817 -45.16776 96.49206 -103.31389 -25.86397 6.70004 48.33606 -6.49635 -10.02567 -27.6868 -14.36771 -4.15005 -4.68647 37.60757 7.28511 10.4927 -43.17518 -9.43543 4.46181 4.56666
-0.37128 -0.03091 -0.51748 287.89571 -22.87708 -8.14743 32.50212 5.93245 -21.70285 -7.41582 8.61411 -2.11994 15.68368 -35.71402 12.01309 123.70317 112.10247 -32.49193 -7.43174 50.30829 14.19676 -45.20924 96.56074 -100.807 -24.30282 6.44196 48.60082 -6.068 -11.41745 -27.23867 -14.49655 -4.19328 -4.71623 37.47565 7.58758 9.68552 -43.34987 -9.76079 4.51396 4.61222
-0.37621 -0.03045 -0.51321 285.88962 -22.88726 -7.98064 32.46304 5.86931 -20.76035 -7.32221 8.61927 -2.11994 15.70276 -34.91409 12.33276 123.63869 113.22248 -32.93398 -7.58242 50.07723 14.36731 -45.23547 96.71102 -97.61344 -22.2994 6.11507 48.86506 -5.70412 -12.94477 -26.70368 -14.65522 -4.23246 -4.74569 37.37149 7.82682 8.69095 -43.55341 -10.10977 4.57456 4.66361
-0.38153 -0.03008 -0.50858 284.03167 -22.95816 -7.7912 32.47944 5.7854 -20.06675 -7.19168 8.51244 -2.11994 16.19126 -34.28602 12.81711 123.45769 114.02457 -33.23107 -7.66109 50.1251 14.40699 -45.28384 96.67737 -95.67798 -21.11451 5.91321 49.16148 -5.17877 -14.31563 -26.31486 -14.73973 -4.27554 -4.77281 37.20889 8.18524 8.05517 -43.6894 -10.42122 4.61734 4.70352
-0.38769 -0.02991 -0.50306 282.58197 -23.19294 -7.5458 32.6497 5.65537 -20.0513 -6.95619 8.11508 -2.11994 17.85592 -34.117 13.70416 122.99154 114.09554 -33.19786 -7.54527 50.8933 14.10494 -45.42901 96.16345 -97.61296 -22.44413 6.09666 49.56128 -4.23108 -15.09841 -26.39555 -14.64603 -4.33698 -4.79881 36.88152 8.88943 8.50426 -43.61822 -10.60393 4.61324 4.71136
-0.39423 -0.02984 -0.49717 281.28605 -23.48507 -7.27922 32.87697 5.505 -20.29275 -6.68629 7.60438 -2.11994 19.99869 -34.12264 14.75577 122.40475 113.84586 -33.02243 -7.35899 51.94576 13.66686 -45.59139 95.46301 -100.79209 -24.58127 6.40399 49.97906 -3.12804 -15.71098 -26.63008 -14.47447 -4.40256 -4.82238 36.49745 9.71452 9.30597 -43.48856 -10.74987 4.5907 4.70744
-0.40064 -0.02974 -0.49139 279.93465 -23.74662 -7.02423 33.08194 5.36221 -20.43618 -6.43757 7.13883 -2.11994 21.97054 -34.06452 15.7459 121.8592 113.70506 -32.90412 -7.2088 52.88838 13.27529 -45.72549 94.83861 -103.23352 -26.23455 6.63835 50.35794 -2.10316 -16.42001 -26.78521 -14.32518 -4.46486 -4.84562 36.1428 10.48095 9.90124 -43.40447 -10.92247 4.57525 4.70879
-0.40688 -0.02959 -0.48582 278.52653 -24.03167 -6.76039 33.27349 5.22576 -20.50382 -6.16363 6.69847 -2.11994 23.75684 -33.9508 16.68603 121.3732 113.70492 -32.81005 -7.04041 53.75049 12.94604 -45.94456 94.2509 -106.36568 -28.35654 6.9395 50.8755 -1.0423 -17.06614 -26.97392 -14.22987 -4.53299 -4.87481 35.77055 11.26058 10.68647 -43.23087 -11.05544 4.56566 4.71083
-0.41356 -0.02955 -0.47975 277.26559 -24.2773 -6.50952 33.50362 5.07107 -20.78396 -5.93562 6.17972 -2.11994 26.03649 -33.98093 17.76559 120.73012 113.34272 -32.6337 -6.89315 54.84864 12.45795 -45.99189 93.54105 -108.38201 -29.71428 7.1335 51.10159 -0.0204 -17.79659 -27.13107 -14.0045 -4.58943 -4.89079 35.4239 12.04305 11.16287 -43.24005 -11.26056 4.53897 4.70828
-0.42132 -0.0298 -0.4723 276.4453 -24.42986 -6.30739 33.85386 4.8766 -21.65066 -5.83182 5.46797 -2.11994 29.59378 -34.48266 19.20655 119.72768 112.04793 -32.28023 -6.82753 56.51274 11.53637 -45.55373 92.55905 -106.84684 -28.63007 6.98692 50.55974 0.84712 -18.79376 -27.17017 -13.43496 -4.61924 -4.87405 35.14272 12.79376 10.68578 -43.68378 -11.68204 4.47413 4.69879
-0.4295 -0.03015 -0.46437 275.75404 -24.53532 -6.11764 34.23608 4.66365 -22.71051 -5.77744 4.68233 -2.11994 33.62237 -35.10131 20.77764 118.56404 110.40797 -31.85035 -6.78512 58.40671 10.46571 -44.94401 91.45823 -104.17922 -26.77489 6.73123 49.71494 1.67048 -19.87978 -27.17114 -12.73829 -4.6358 -4.84346 34.89313 13.54405 9.88896 -44.32758 -12.17483 4.39198 4.68456
-0.43751 -0.03046 -0.45669 274.95789 -24.64206 -5.91749 34.58551 4.45557 -23.64186 -5.70799 3.9334 -2.11994 37.41509 -35.58981 22.27852 117.44404 108.93003 -31.4427 -6.72781 60.20646 9.48056 -44.41699 90.39802 -102.14261 -25.36332 6.53528 48.98171 2.51978 -20.92852 -27.18722 -12.1024 -4.65443 -4.8173 34.64133 14.30291 9.24849 -44.93782 -12.63054 4.31465 4.67062
-0.44544 -0.03074 -0.44886 274.36533 -24.83425 -5.73728 35.01338 4.26142 -24.75612 -5.60679 3.16689 -2.11994 41.32295 -36.40977 23.83501 116.4415 107.40182 -31.06987 -6.68464 61.97516 8.41203 -43.86874 89.38357 -99.66006 -23.58924 6.30083 48.3617 3.35197 -21.96157 -27.2213 -11.45034 -4.69072 -4.79929 34.33523 15.03558 8.57354 -45.31159 -13.10822 4.24909 4.66412
-0.45363 -0.03112 -0.44124 273.3736 -24.83846 -5.51806 35.28551 4.03443 -25.52935 -5.58307 2.42142 -2.11994 45.08813 -36.56457 25.3006 115.16182 105.922 -30.62432 -6.62062 63.85661 7.48813 -43.32604 88.25333 -97.81841 -22.37267 6.11892 47.43085 4.20456 -23.0468 -27.20259 -10.80372 -4.68595 -4.76059 34.15176 15.81484 7.88999 -46.21641 -13.55315 4.15569 4.64118
-0.46251 -0.0318 -0.43431 271.27982 -24.31834 -5.19447 35.11269 3.719 -25.33453 -5.76864 1.74891 -2.11994 48.41269 -34.85628 26.51456 113.12207 104.4739 -29.85581 -6.47471 66.01475 6.96285 -42.82224 86.78886 -98.04591 -22.9186 6.10967 45.73946 5.14615 -24.2844 -27.08266 -10.19299 -4.57964 -4.67164 34.28966 16.77651 7.25882 -48.6201 -13.92853 3.98512 4.57382
-0.47164 -0.03259 -0.42762 268.7736 -23.61375 -4.83028 34.7832 3.37179 -24.78484 -6.02925 1.10165 -2.11994 51.56087 -32.47442 27.62557 110.81707 103.11927 -29.0408 -6.31057 68.27227 6.5968 -42.33429 85.22183 -98.94879 -24.04393 6.15638 43.74135 6.1046 -25.56512 -26.90312 -9.59256 -4.43042 -4.56146 34.55279 17.77449 6.62884 -51.5341 -14.26182 3.78818 4.49026
-0.48061 -0.03332 -0.42082 266.43404 -23.004 -4.48041 34.52961 3.04055 -24.38236 -6.25084 0.44509 -2.11994 54.74396 -30.39713 28.76277 108.65516 101.85032 -28.34399 -6.16768 70.46953 6.18183 -41.84976 83.7303 -99.51953 -24.87465 6.17615 41.86787 7.04061 -26.80914 -26.72756 -8.99687 -4.29571 -4.45903 34.76402 18.72002 5.99774 -54.16435 -14.58906 3.60623 4.41417
-0.48979 -0.03411 -0.41398 264.18501 -22.34512 -4.14776 34.25677 2.70169 -24.04535 -6.49499 -0.22471 -2.11994 58.14008 -28.32576 29.99284 106.38786 100.04288 -27.24691 -5.97194 72.74151 5.65895 -41.31027 82.10934 -100.15118 -25.80221 6.19815 40.04553 8.03889 -28.13461 -26.65018 -8.36456 -4.18329 -4.36514 34.95166 19.81726 5.35747 -57.02997 -15.02382 3.41048 4.33708
